

Cover:


Release info:

General
Format                                   : Matroska
Format version                           : Version 2
File size                                : 734 MiB
Duration                                 : 2h 11mn
Overall bit rate                         : 780 Kbps
Movie name                               : Talaash 2012 DVDScr Hindi [EngSub]


Video
ID                                       : 1
Format                                   : MPEG-4 Visual
Format profile                           : Advanced Simple@L5
Format settings, BVOP                    : Yes
Format settings, QPel                    : No
Format settings, GMC                     : No warppoints
Format settings, Matrix                  : Default (H.263)
Codec ID                                 : V_MS/VFW/FOURCC / XVID
Codec ID/Hint                            : XviD
Duration                                 : 2h 11mn
Bit rate                                 : 636 Kbps
Width                                    : 640 pixels
Height                                   : 256 pixels
Display aspect ratio                     : 2.500
Frame rate mode                          : Constant
Frame rate                               : 23.976 fps
Color space                              : YUV
Chroma subsampling                       : 4:2:0
Bit depth                                : 8 bits
Scan type                                : Progressive
Compression mode                         : Lossy
Bits/(Pixel*Frame)                       : 0.162
Stream size                              : 599 MiB (82%)
Title                                    : Talaash 2012 DVDScr Hindi [EngSub]
Language                                 : Hindi
Default                                  : Yes
Forced                                   : No

Audio
ID                                       : 3
Format                                   : MPEG Audio
Format version                           : Version 1
Format profile                           : Layer 3
Mode                                     : Joint stereo
Mode extension                           : MS Stereo
Muxing mode                              : Header stripping
Codec ID                                 : A_MPEG/L3
Codec ID/Hint                            : MP3
Duration                                 : 2h 11mn
Bit rate mode                            : Constant
Bit rate                                 : 128 Kbps
Channel(s)                               : 2 channels
Sampling rate                            : 44.1 KHz
Compression mode                         : Lossy
Stream size                              : 120 MiB (16%)
Title                                    : Talaash 2012 DVDScr Hindi [EngSub]
Language                                 : Hindi
Default                                  : Yes
Forced                                   : No

Text
ID                                       : 2
Format                                   : UTF-8
Codec ID                                 : S_TEXT/UTF8
Codec ID/Info                            : UTF-8 Plain Text
Title                                    : Talaash 2012 DVDScr Hindi [EngSub]
Language                                 : English
Default                                  : Yes
Forced                                   : No



Source:
credit to original movie ripper DDR (Thanks)

IMDB Info:

A cop, a housewife and a prostitute get entangled in a mystery that links their lives in unexpected ways.
Director: Reema Kagti
Writers: Zoya Akhtar (story), Anurag Kashyap
Stars: Aamir Khan, Kareena Kapoor and Rani Mukerji
Genres: Crime | Drama | Thriller
 
http://www.imdb.com/title/tt1787988/

Screen Shot:
 
http://www.shotpix.com/images/14466884871561425858.png 
http://www.shotpix.com/images/53393466491212801104.png 
http://www.shotpix.com/images/09033144800411686826.png 
http://www.shotpix.com/images/88986217399983748547.png 
http://www.shotpix.com/images/43402149993832675587.png 
http://www.shotpix.com/images/74347840089578588520.png 
http://www.shotpix.com/images/08139746802406120449.png 
http://www.shotpix.com/images/43837323950993062350.png